<?xml version="1.0" standalone="no"?>
<!DOCTYPE svg PUBLIC "-//W3C//DTD SVG 20010904//EN"
 "http://www.w3.org/TR/2001/REC-SVG-20010904/DTD/svg10.dtd">
<svg version="1.0" xmlns="http://www.w3.org/2000/svg"
 width="355.000000pt" height="355.000000pt" viewBox="0 0 355.000000 355.000000"
 preserveAspectRatio="xMidYMid meet">
<metadata>
Created by potrace 1.11, written by Peter Selinger 2001-2013
</metadata>
<g transform="translate(0.000000,355.000000) scale(0.100000,-0.100000)"
fill="#000000" stroke="none">
<path d="M1753 3219 c-17 -5 -105 -51 -195 -102 -89 -52 -347 -199 -573 -327
-226 -128 -425 -244 -443 -257 -19 -14 -42 -39 -53 -56 -18 -30 -18 -63 -19
-703 l0 -671 29 -40 c31 -43 64 -64 291 -191 80 -44 161 -90 180 -101 19 -11
42 -24 50 -28 8 -4 80 -44 160 -88 80 -45 165 -93 190 -107 25 -14 118 -66
206 -116 89 -50 177 -95 196 -100 46 -13 102 -5 146 20 20 11 56 31 79 44 23
13 93 54 155 90 62 37 129 76 148 87 19 10 152 87 295 170 143 83 300 173 349
201 100 57 132 93 144 157 4 24 7 339 7 699 -1 606 -2 658 -19 692 -9 20 -25
43 -34 51 -14 12 -161 98 -477 279 -11 6 -101 58 -199 115 -99 57 -181 103
-183 103 -1 0 -31 17 -65 38 -69 42 -162 95 -220 125 -43 22 -99 28 -145 16z
m328 -340 c107 -61 198 -115 203 -119 5 -5 -47 -105 -119 -231 -120 -209 -127
-223 -110 -235 10 -8 21 -14 25 -14 6 0 229 380 242 412 14 34 35 29 129 -25
52 -30 114 -65 139 -79 25 -14 94 -54 153 -88 121 -69 119 -61 22 -115 -71
-39 -446 -254 -472 -271 -19 -12 -21 -18 -11 -39 l11 -24 41 21 c22 11 56 31
76 43 50 32 473 274 485 277 9 3 17 -550 8 -577 -2 -7 -94 -10 -256 -9 -138 0
-257 -1 -263 -4 -7 -2 -11 -14 -10 -28 1 -18 7 -24 26 -25 14 0 133 -1 265 -2
l240 -2 1 -260 c0 -143 -1 -263 -3 -267 -2 -4 -29 8 -61 26 -201 114 -468 270
-476 277 -16 14 -36 10 -43 -8 -4 -10 -20 -40 -36 -66 -17 -27 -26 -52 -21
-56 7 -7 237 -140 379 -221 17 -9 56 -32 88 -49 31 -18 57 -36 57 -39 0 -4
-44 -32 -97 -62 -53 -30 -117 -67 -142 -81 -25 -14 -81 -47 -123 -72 l-77 -45
-28 46 c-41 68 -44 74 -134 230 -44 78 -85 144 -89 147 -4 3 -17 -3 -28 -13
-19 -17 -18 -20 99 -220 65 -112 119 -209 119 -215 0 -7 -62 -47 -138 -90 -75
-43 -144 -82 -152 -88 -54 -33 -140 -79 -147 -79 -4 0 -7 139 -6 308 l2 308
-82 0 -82 -1 0 -282 c0 -279 0 -281 -20 -270 -79 42 -392 220 -399 227 -7 7
79 168 149 281 6 9 22 38 37 66 26 48 26 49 7 61 -11 7 -24 10 -29 7 -5 -3
-58 -91 -117 -195 l-108 -189 -75 41 c-41 23 -91 50 -110 61 -142 80 -199 112
-223 124 -16 8 -27 16 -25 18 3 3 161 96 203 119 126 70 296 170 299 175 3 4
-11 31 -30 61 -18 30 -34 61 -34 68 0 19 -19 14 -72 -18 -26 -16 -50 -30 -52
-30 -2 0 -48 -26 -103 -58 -54 -32 -118 -70 -143 -84 -25 -14 -73 -42 -107
-62 -34 -20 -64 -36 -67 -36 -3 0 -6 114 -6 254 l0 253 246 -1 c154 -1 248 3
252 9 12 19 12 45 -1 46 -6 1 -120 2 -252 3 l-240 1 -3 288 c-2 272 -1 287 15
278 10 -5 86 -48 168 -96 83 -48 170 -99 195 -113 25 -14 78 -45 119 -69 66
-40 75 -43 89 -30 30 30 38 25 -446 303 -41 23 -76 44 -78 47 -5 5 104 69 339
201 76 43 140 76 141 75 2 -2 54 -92 116 -199 62 -107 117 -201 122 -207 11
-14 48 0 48 18 0 10 -167 306 -216 381 l-24 37 68 39 c216 126 352 202 359
202 5 0 8 -135 8 -300 l0 -300 82 0 81 0 1 278 c0 415 -2 374 20 363 10 -6
106 -60 212 -122z"/>
<path d="M1725 2153 c-42 -5 -125 -33 -158 -54 -80 -48 -165 -159 -183 -239
-12 -52 -13 -146 -2 -190 90 -366 577 -422 744 -84 32 64 37 84 39 155 5 152
-59 273 -186 355 -65 41 -176 66 -254 57z"/>
</g>
</svg>
