<?xml version="1.0" encoding="utf-8"?>
<!-- Generator: Adobe Illustrator 19.2.1, SVG Export Plug-In . SVG Version: 6.00 Build 0)  -->
<svg version="1.1" id="Layer_1" xmlns="http://www.w3.org/2000/svg" xmlns:xlink="http://www.w3.org/1999/xlink" x="0px" y="0px"
	 viewBox="0 0 237.3 190.4" style="enable-background:new 0 0 237.3 190.4;" xml:space="preserve">
<style type="text/css">
	.st0{fill:none;stroke:#EFD519;stroke-width:7;stroke-miterlimit:10;}
	.st1{fill:#EED518;}
	.st2{fill:#EFD519;}
	.st3{clip-path:url(#XMLID_2_);}
</style>
<path id="XMLID_112_" class="st0" d="M162.3,97.2l-40,23.1c-1.1,0.6-2.3,0.6-3.4,0L77.6,97.2c-1.1-0.6-2.9-1.7-2.9-2.9V48
	c0-1.2,1.8-2.3,2.9-2.9l40.7-23.1c1.1-0.6,2.6-0.6,3.7,0L162.1,45c1.1,0.6,1.7,1.7,1.7,2.9v46.3C163.8,95.5,163.3,96.6,162.3,97.2z"
	/>
<g>
	<path class="st1" d="M14.6,138.7h17.8v4H19.1v8h10.8v4H19.1v8.3h13.2v4H14.6V138.7z"/>
	<path class="st1" d="M36.9,166.9v-20.6h4.5v1.3c0,0,3-1.7,5.7-1.7c5.7,0,7.1,3.3,7.1,10v11.1h-4.5V156c0-4.1-0.5-6.1-3.7-6.1
		c-2.4,0-4.7,1.1-4.7,1.1v16H36.9z"/>
	<path class="st1" d="M75.2,163.1l0.1,3.3c0,0-4.7,0.9-8.3,0.9c-6.2,0-8.6-3.3-8.6-10.6c0-7.6,3.3-11,9-11c5.8,0,8.7,3,8.7,9.4
		l-0.3,3.2H62.9c0,3.3,1.3,5,4.7,5C70.9,163.5,75.2,163.1,75.2,163.1z M71.6,155c0-4.1-1.2-5.5-4.2-5.5c-3.1,0-4.4,1.5-4.5,5.5H71.6
		z"/>
	<path class="st1" d="M80.3,146.3h4.5v2.5c0,0,3.5-2.3,7-2.9v4.5c-3.8,0.7-7,2.2-7,2.2v14.4h-4.5V146.3z"/>
	<path class="st1" d="M94.1,170.6c0-2.1,1-3.4,3.1-5c-0.9-0.6-1.4-1.7-1.4-3c0-0.9,1.5-3.3,1.5-3.3c-1.5-0.9-3-2.5-3-6.2
		c0-5.2,3.5-7.2,8.3-7.2c1.9,0,4.2,0.5,4.2,0.5l6.4-0.2v3.6l-3.4-0.2c0.5,0.7,1.1,1.8,1.1,3.4c0,5.6-2.9,7.1-8.4,7.1
		c-0.4,0-1.4-0.1-1.8-0.2c0,0-0.6,1.4-0.6,1.9c0,1.3,0.5,1.6,4.5,1.6c6.5,0,8.5,1.4,8.5,6.1c0,4.9-4,6.8-9.5,6.8
		C97.4,176.5,94.1,175.3,94.1,170.6z M100.2,167.2c-1.2,0.9-1.7,1.7-1.7,2.9c0,1.9,1.4,2.7,5.1,2.7c3.3,0,5-0.8,5-2.8
		c0-2.2-1.1-2.5-4.4-2.5C103,167.5,100.2,167.2,100.2,167.2z M106.5,153.1c0-2.5-1.1-3.7-3.8-3.7c-2.6,0-3.8,1.2-3.8,3.7
		c0,2.5,1.2,3.7,3.8,3.7C105.4,156.7,106.5,155.6,106.5,153.1z"/>
	<path class="st1" d="M125.2,136.1l1.4,3.9l-10.1,3.2l-1.1-2.9L125.2,136.1z M116.8,166.9h4.5v-20.6h-4.5V166.9z"/>
	<path class="st1" d="M142,162.1c0.1,1.2,0.6,1.7,1.8,1.9l-0.1,3.4c-2.5,0-4-0.3-5.5-1.5c0,0-3.3,1.5-6.6,1.5
		c-4.1,0-6.1-2.3-6.1-6.6c0-4.4,2.4-5.9,6.8-6.2l5.3-0.5v-1.5c0-2.3-1-3-3-3c-2.8,0-7.8,0.4-7.8,0.4l-0.2-3.2c0,0,4.5-1.1,8.3-1.1
		c5,0,7.1,2.1,7.1,6.8V162.1z M132.8,157.8c-1.9,0.2-2.8,1.1-2.8,2.9c0,1.9,0.8,3,2.5,3c2.4,0,5.1-0.9,5.1-0.9v-5.5L132.8,157.8z"/>
	<path class="st1" d="M148.3,166.9l6.6-28.7h2.6l-6.1,26.4h11.8l-0.5,2.3H148.3z"/>
	<path class="st1" d="M170.5,146.3h2.5l-4.8,20.6h-2.5L170.5,146.3z M172.4,138.2h2.5l-0.7,3.3h-2.5L172.4,138.2z"/>
	<path class="st1" d="M192.3,152.1c0,5.1-2.9,15.2-10.4,15.2c-3.1,0-7.9-1-7.9-1l6.8-29.2h2.5l-2.8,12.2c0,0,3.3-3.4,6.6-3.4
		C191.3,145.9,192.3,148.5,192.3,152.1z M189.8,152.2c0-2.4-0.4-4.1-3.5-4.1c-2.8,0-6.5,3.9-6.5,3.9l-2.9,12.6c0,0,3.1,0.6,5,0.6
		C187.9,165.2,189.8,155.3,189.8,152.2z"/>
	<path class="st1" d="M199,146.3h2.4l-0.7,3.1c0,0,4-2.7,7.7-3.5l-0.6,2.5c-2.8,0.7-7.6,3.3-7.6,3.3l-3.5,15.3h-2.5L199,146.3z"/>
	<path class="st1" d="M220.8,164.1l-0.2,2c0,0-3.6,1.2-7.3,1.2c-3.8,0-6.1-2-6.1-6.1c0-7,3.4-15.3,11.1-15.3c3.5,0,5.8,1.4,5.8,4.7
		c0,5-3.9,6.6-11.6,6.6h-2.3c-0.3,1.2-0.5,2.8-0.5,3.8c0,2.7,1.7,4.1,4.2,4.1C217.1,165.1,220.8,164.1,220.8,164.1z M213.2,155.2
		c5.8,0,8.6-0.9,8.6-4.5c0-1.9-1.2-2.6-3.5-2.6c-4.1,0-6.3,2.9-7.6,7.1H213.2z"/>
</g>
<circle class="st2" cx="118.8" cy="71.8" r="14.5"/>
<g>
	<defs>
		<path id="XMLID_111_" d="M160.5,97.2l-40.1,23.1c-1.1,0.6-2.4,0.6-3.4,0l-40-23.1c-1.1-0.6-1.7-1.7-1.7-2.9V48
			c0-1.2,0.6-2.3,1.6-2.9L117,21.9c1.1-0.6,2.3-0.6,3.4,0L160.5,45c1.1,0.6,1.8,1.7,1.8,2.9v46.3C162.3,95.5,161.6,96.6,160.5,97.2z
			"/>
	</defs>
	<clipPath id="XMLID_2_">
		<use xlink:href="#XMLID_111_"  style="overflow:visible;"/>
	</clipPath>
	<g class="st3">
		<path class="st2" d="M83.9,9l-1.7,1L107,53c0.6-0.3,1.1-0.7,1.7-1L83.9,9z"/>
		<path class="st2" d="M153.3,133.2l1.7-1l-24.1-41.8c-0.5,0.4-1.1,0.7-1.7,1L153.3,133.2z"/>
		<path class="st2" d="M57.5,34.7l-1,1.7l42.8,24.7c0.3-0.6,0.7-1.1,1-1.7L57.5,34.7z"/>
		
			<rect x="179.1" y="106.5" transform="matrix(0.5002 -0.8659 0.8659 0.5002 -2.2939 209.2675)" class="st2" width="2" height="0.2"/>
		<path class="st2" d="M141,72.1h48.8v-2h-48.8c0,0.5,0.1,1.1,0.1,1.6C141,71.9,141,72,141,72.1z"/>
		<path class="st2" d="M96.6,70.1H47.5v2h49.1c0-0.1,0-0.2,0-0.3C96.6,71.2,96.6,70.7,96.6,70.1z"/>
		<path class="st2" d="M180.7,36.4l-1-1.7l-42.6,24.6c0.4,0.5,0.7,1.1,1,1.7L180.7,36.4z"/>
		<polygon class="st2" points="56.6,105.8 57,106.7 56.6,105.8 		"/>
		<path class="st2" d="M155,10l-1.7-1l-24.7,42.8c0.6,0.3,1.2,0.6,1.7,0.9L155,10z"/>
		<path class="st2" d="M82.2,132.2l1.7,1l24.2-41.9c-0.6-0.3-1.1-0.7-1.7-1L82.2,132.2z"/>
		<path class="st2" d="M121.6,49.7V0h-5.9v49.8c1-0.1,2-0.2,3.1-0.2C119.7,49.6,120.7,49.6,121.6,49.7z"/>
		<path class="st2" d="M115.7,93.8v48.5h5.9V93.8c-0.9,0.1-1.8,0.2-2.8,0.2C117.7,94,116.7,93.9,115.7,93.8z"/>
		<path class="st2" d="M98,79.6l-42.4,24.5l1,1.7l42.2-24.4C98.5,80.9,98.2,80.3,98,79.6z"/>
		<path class="st2" d="M57.5,107.5l-0.5-0.8l1.5,2.5l42.3-24.4c-0.4-0.5-0.7-1.1-1.1-1.6L57.5,107.5z"/>
		<path class="st2" d="M99.7,83.2c-0.3-0.6-0.6-1.1-0.9-1.7l-42.2,24.4l0.5,0.8l0.5,0.8L99.7,83.2z"/>
		<path class="st2" d="M136.6,85l41.9,24.2l1-1.8l-41.8-24.1C137.4,83.9,137,84.5,136.6,85z"/>
		<path class="st2" d="M180.5,105.7l0.9-1.6l-42-24.2c-0.2,0.6-0.5,1.1-0.7,1.7L180.5,105.7z"/>
		<path class="st2" d="M137.8,83.3l41.8,24.1l1-1.7l-41.8-24.1C138.4,82.2,138.1,82.7,137.8,83.3z"/>
	</g>
</g>
</svg>
